<svg xmlns="http://www.w3.org/2000/svg" viewBox="0 0 1600 900" role="img" aria-labelledby="title desc">
  <title id="title">York Minster illustration</title>
  <desc id="desc">Stylised Gothic towers above warm historic rooftops and a green city wall.</desc>
  <defs><linearGradient id="sky" x1="0" y1="0" x2="0" y2="1"><stop stop-color="#b9ced5"/><stop offset="1" stop-color="#efe1c9"/></linearGradient></defs>
  <rect width="1600" height="900" fill="url(#sky)"/>
  <path d="M0 655c250-65 445-30 670 18 315 68 610-38 930-18v245H0z" fill="#71856b"/>
  <g fill="#80786e"><path d="M535 300h530v390H535z"/><path d="M520 190h190v500H520z"/><path d="M890 190h190v500H890z"/><path d="M548 120l67-80 67 80v70H548zM918 120l67-80 67 80v70H918z"/></g>
  <g fill="#d7c6a7"><path d="M575 245h80v125h-80zM945 245h80v125h-80z"/><path d="M740 390h120v300H740z"/></g>
  <g stroke="#5d5954" stroke-width="13" fill="none"><path d="M615 245v125M575 305h80M985 245v125M945 305h80"/><path d="M800 390v300"/></g>
  <g fill="#9f6a55"><path d="M60 600l240-155 240 155v190H60z"/><path d="M1060 610l210-135 250 135v180h-460z"/></g>
  <g fill="#d5c3a2"><path d="M90 615h420v175H90zM1090 625h400v165h-400z"/></g>
  <path d="M0 760h1600v140H0z" fill="#93866f"/><path d="M0 750c350-35 520 22 800 4 320-21 490-48 800-4" stroke="#cfc3a7" stroke-width="28" fill="none"/>
</svg>
